<?xml version="1.0" encoding="iso-8859-1"?>
<!-- Generator: Adobe Illustrator 19.0.0, SVG Export Plug-In . SVG Version: 6.00 Build 0)  -->
<svg version="1.1" id="Layer_1" xmlns="http://www.w3.org/2000/svg" xmlns:xlink="http://www.w3.org/1999/xlink" x="0px" y="0px"
	 viewBox="0 0 512 512" style="enable-background:new 0 0 512 512;" xml:space="preserve">
<circle style="fill:#FF8C8A;" cx="256" cy="255.991" r="255.991"/>
<path style="fill:#FA7876;" d="M510.836,280.439C498.534,410.359,389.141,512,256,512c-9.24,0-18.358-0.508-27.335-1.452
	l-96.11-96.11l246.909-265.389L510.836,280.439z"/>
<polygon style="fill:#F7F7F7;" points="132.554,97.563 327.96,97.563 379.463,149.048 379.463,414.437 132.554,414.437 "/>
<polygon style="fill:#9EA7DB;" points="132.554,97.563 327.96,97.563 379.463,149.048 379.463,173.828 132.554,173.828 "/>
<polygon style="fill:#EBECEC;" points="327.96,97.563 327.96,149.048 379.463,149.048 "/>
<path style="fill:#F8F8F8;" d="M160.31,158.551v-37.17h-13.248v-7.56h35.49v7.56h-13.178v37.17H160.31z M183.882,158.551
	l15.435-23.31l-14-21.42h10.553l8.803,13.318l8.82-13.318h10.57l-14.053,21.42l15.418,23.31h-10.85l-9.905-15.138l-9.923,15.138
	H183.882z M240.145,158.551v-37.17h-13.248v-7.56h35.49v7.56h-13.195v37.17H240.145z"/>
<path style="fill:#B3B3BD;" d="M150.229,247.854h211.541v14.298H150.229V247.854z M150.229,210.036h211.541v14.315H150.229V210.036z
	 M150.229,347.482h211.541v14.315H150.229V347.482z M150.229,314.267h211.541v14.315H150.229V314.267z M150.229,281.051h211.541
	v14.315H150.229V281.051z"/>
<g>
</g>
<g>
</g>
<g>
</g>
<g>
</g>
<g>
</g>
<g>
</g>
<g>
</g>
<g>
</g>
<g>
</g>
<g>
</g>
<g>
</g>
<g>
</g>
<g>
</g>
<g>
</g>
<g>
</g>
</svg>
